<svg data-v-0dd9719b="" version="1.0" xmlns="http://www.w3.org/2000/svg" xmlns:xlink="http://www.w3.org/1999/xlink" width="100%" height="100%" viewBox="0 0 340.000000 250.000000" preserveAspectRatio="xMidYMid meet" color-interpolation-filters="sRGB" style="margin: auto;"> <rect data-v-0dd9719b="" x="0" y="0" width="100%" height="100%" fill="#fff" fill-opacity="1" class="background"></rect> <rect data-v-0dd9719b="" x="0" y="0" width="100%" height="100%" fill="url(#watermark)" fill-opacity="1" class="watermarklayer"></rect> <g data-v-0dd9719b="" fill="#333" class="icon-text-wrapper icon-svg-group iconsvg" transform="translate(102.69781494140625,94.75374984741211)"><g class="iconsvg-imagesvg" transform="translate(0,0.2447509765625)"><g><rect fill="#333" fill-opacity="0" stroke-width="2" x="0" y="0" width="60" height="60.0030001500075" class="image-rect"></rect> <svg x="0" y="0" width="60" height="60.0030001500075" filtersec="colorsb9837555957" class="image-svg-svg primary" style="overflow: visible;"><svg xmlns="http://www.w3.org/2000/svg" viewBox="-0.014925574883818626 0 167.32083129882812 167.32998657226562"><path d="M167.18 77.06a15.57 15.57 0 0 1-1.54-.58c-23-11.29-38.26-29.18-45.46-53.83a85.58 85.58 0 0 1-3.12-20.93c0-1.34.38-1.71 1.71-1.71q23.42.06 46.85 0c1.24 0 1.68.35 1.68 1.64v73.87c-.03.48-.08.89-.12 1.54z" fill="#3cb54c"></path><path d="M.1 76.45c0-.83-.08-1.31-.08-1.8V1.89C0 0 0 0 1.85 0h44.93c1.44 0 1.76.44 1.7 1.81C47 34 32.26 58 4.54 74.14c-1.37.8-2.8 1.46-4.44 2.31z" fill="#22aeee"></path><path d="M167.27 127.58v6.34c0 1.07-.18 1.5-1.42 1.16q-50.9-14-80.51-57.71a135.65 135.65 0 0 1-20.3-47.76 135.56 135.56 0 0 1-3.11-27.75c0-1.81 0-1.81 1.83-1.82h11.58C76.52 0 76.89.35 77 1.55c.45 6 .75 12.11 1.59 18.1a114.61 114.61 0 0 0 11.22 35.43A124.46 124.46 0 0 0 143 110a116.51 116.51 0 0 0 22.62 9.33c1.2.35 1.75.85 1.68 2.19-.11 2.01-.03 4.04-.03 6.06z" fill="#3cb54c"></path><path d="M167.16 106.72c-1.82-.63-3.46-1.14-5.06-1.76q-39.9-15.54-60-53.33a106.55 106.55 0 0 1-10.79-31.55A117.72 117.72 0 0 1 89.5 1.73C89.48.42 89.82 0 91.18 0c3.95.09 7.91.07 11.82 0 1.2 0 1.54.37 1.57 1.57.72 28.37 11.7 52.07 32.69 71.1a91.5 91.5 0 0 0 28.22 17.4 2.33 2.33 0 0 1 1.79 2.59c-.11 4.14 0 8.28 0 12.41 0 .46-.06.93-.11 1.65z" fill="#3cb54c"></path><path d="M48.91 127.51v37.99c0 1.82 0 1.8-1.84 1.8H2c-2 0-2 0-2-1.93v-15.16c0-1 .21-1.45 1.27-1.71a150.67 150.67 0 0 0 40-16.32c2.06-1.21 4.07-2.5 6.1-3.75z" fill="#fb941c"></path><path d="M66.75 72.56c.21.34.46.7.68 1.07 2.29 3.76 4.54 7.55 6.9 11.27a1.72 1.72 0 0 1-.15 2.39 140.5 140.5 0 0 1-53 41.14 134.54 134.54 0 0 1-19.83 7.07c-.34.09-.69.15-1.18.25a11.79 11.79 0 0 1-.17-1.28v-12.82a1.65 1.65 0 0 1 1.37-1.85c26.47-8.39 47.85-23.87 64.3-46.2.22-.3.43-.59.67-.88.04-.06.16-.06.41-.16z" fill="#22aeee"></path><path d="M118.5 128.59c2.15 1.29 4.18 2.52 6.22 3.72a149.8 149.8 0 0 0 40.57 16.4c2 .48 2 .48 2 2.53v14.47c0 1.18-.32 1.62-1.55 1.62q-23-.06-46.05 0c-.91 0-1.34-.23-1.34-1.23v-36.67a6.35 6.35 0 0 1 .15-.84z" fill="#fb941c"></path><path d="M53.64 39.77c1.15 3.58 2.18 6.95 3.32 10.28.89 2.61 1.85 5.19 2.92 7.73a2.33 2.33 0 0 1-.25 2.4 113.57 113.57 0 0 1-24.08 27.23 114.14 114.14 0 0 1-32.21 18.52c-.9.35-1.82.61-2.74.9a1.93 1.93 0 0 1-.44-.07 11.71 11.71 0 0 1-.16-1.38v-13a1.8 1.8 0 0 1 1.33-1.88Q36.6 75.56 53 40.93c.13-.35.36-.67.64-1.16z" fill="#22aeee"></path><path d="M77.25 103.28c0 .62.09 1 .09 1.49v60.49c0 2.05 0 2.05-2 2H63.07c-1.09 0-1.55-.26-1.55-1.45v-46.72a2.59 2.59 0 0 1 .69-1.67c4.78-4.62 9.61-9.2 14.43-13.79a6 6 0 0 1 .61-.35zM90.71 104.72c.19.43.26 1 .57 1.27 4.53 4.23 9.1 8.4 13.61 12.64a2.86 2.86 0 0 1 .86 1.86v45.32c0 1.12-.34 1.53-1.5 1.51q-6.4-.07-12.81 0c-1.22 0-1.56-.39-1.56-1.58V106.5c0-.43.06-.87.09-1.3z" fill="#fb941c"></path></svg></svg> <!----></g></g> <g transform="translate(67,0)"><g data-gra="path-name" fill-rule="" class="tp-name iconsvg-namesvg" transform="translate(0,0)"><g transform="scale(1)"><g><path d="M25.35 0.54L51.35 0.54 51.35-3.12 28.79-3.12 28.79-19.55 32.44-19.12 32.44-4.3 38.78-4.3 38.78-12.46 38.78-12.46 38.78-16.11 38.78-16.11 38.78-21.16 38.78-21.16 38.78-24.81 38.78-24.81 38.78-29.54 43.61-29.54 43.61-24.81 38.35-24.81 38.35-21.16 43.61-21.16 43.61-16.11 38.35-16.11 38.35-12.46 43.61-12.46 43.61-7.73 40.82-7.73 40.82-4.3 46.84-4.3 49.95-6.02 49.95-31.37 46.84-32.98 38.67-32.98 40.07-37.17 51.24-37.17 51.24-40.82 41.25-40.82 42.22-43.94 36.09-44.79 34.8-40.82 29.97-40.82 29.97-37.17 33.62-37.17 28.79-22.02 28.79-32.98 21.81-32.98 21.81-1.18 25.35 0.54ZM28.79-37.38L28.79-44.04 21.81-44.04 21.81-37.38 28.79-37.38ZM2.58-42.43L2.58 0.75 9.13 0.75 9.13-44.26 6.12-44.26 2.58-42.43ZM16.33-44.26L10.85-44.26 10.85-40.61 12.78-40.61 12.78-25.14 10.85-25.14 10.85-21.48 12.78-21.48 12.78-6.12 10.85-6.12 10.85-2.47 16.33-2.47 19.87-4.3 19.87-22.45 18.48-23.31 19.87-24.28 19.87-42.43 16.33-44.26Z" transform="translate(-2.5799999237060547, 44.790000915527344)"></path></g> <!----> <!----> <!----> <!----> <!----> <!----> <!----></g></g> <g data-gra="path-slogan" fill-rule="" class="tp-slogan iconsvg-slogansvg" fill="#333" transform="translate(-18.830001831054688,51.540000915527344)"><!----> <!----> <g transform="scale(1, 1)"><g transform="scale(1)"><path d="M8.06-6.05L8.06-6.05L6.94-6.05Q6.52-7.78 4.55-7.83L4.55-7.83Q1.83-7.69 1.73-4.36L1.73-4.36Q1.73-0.80 4.59-0.80L4.59-0.80Q6.56-0.84 7.03-3.19L7.03-3.19L8.16-3.19Q7.64 0.05 4.36 0.14L4.36 0.14Q0.61 0 0.52-4.31L0.52-4.31Q0.70-8.63 4.55-8.81L4.55-8.81Q7.59-8.72 8.06-6.05ZM10.69-5.06L15.19-5.06L15.19-8.58L16.36-8.58L16.36 0L15.19 0L15.19-3.98L10.69-3.98L10.69 0L9.52 0L9.52-8.58L10.69-8.58L10.69-5.06ZM23.81 0L22.97-2.48L19.50-2.48L18.61 0L17.44 0L20.67-8.58L21.98-8.58L25.08 0L23.81 0ZM21.23-7.31L19.88-3.52L22.55-3.52L21.28-7.31L21.23-7.31ZM28.31-7.59L25.41-7.59L25.41-8.58L32.34-8.58L32.34-7.59L29.44-7.59L29.44 0L28.31 0L28.31-7.59ZM41.48-7.13L41.44-7.13L39.47 0L38.25 0L36-8.58L37.22-8.58L38.86-1.59L38.91-1.59L40.83-8.58L42.09-8.58L44.02-1.59L44.06-1.59L45.66-8.58L46.92-8.58L44.67 0L43.45 0L41.48-7.13ZM48.19-8.58L49.36-8.58L49.36 0L48.19 0L48.19-8.58ZM53.53-7.59L50.63-7.59L50.63-8.58L57.56-8.58L57.56-7.59L54.66-7.59L54.66 0L53.53 0L53.53-7.59ZM59.77-5.06L64.27-5.06L64.27-8.58L65.44-8.58L65.44 0L64.27 0L64.27-3.98L59.77-3.98L59.77 0L58.59 0L58.59-8.58L59.77-8.58L59.77-5.06ZM78.80-8.58L78.80 0L77.67 0L77.67-5.06Q77.67-5.77 77.67-7.22L77.67-7.22L75.23 0L74.06 0L71.67-7.22L71.63-7.22Q71.63-6.70 71.67-5.67L71.67-5.67Q71.67-5.16 71.67-5.06L71.67-5.06L71.67 0L70.50 0L70.50-8.58L72.19-8.58L74.67-1.31L77.11-8.58L78.80-8.58ZM81.80-1.03L86.95-1.03L86.95 0L80.63 0L80.63-8.58L86.86-8.58L86.86-7.59L81.80-7.59L81.80-4.92L86.48-4.92L86.48-3.89L81.80-3.89L81.80-1.03Z" transform="translate(-0.515625, 8.8125)"></path></g></g></g></g></g><defs v-gra="od"></defs></svg>